<svg width="150" height="40" viewBox="0 0 150 40" fill="none" xmlns="http://www.w3.org/2000/svg">
<g clip-path="url(#clip0_80_1139)">
<path fill-rule="evenodd" clip-rule="evenodd" d="M143.928 0C147.268 0 150 2.45986 150 5.46625V34.5339C150 37.5402 147.268 40 143.928 40H6.07169C2.73215 40 0 37.5402 0 34.5339V5.46625C0 2.45986 2.73215 0 6.07169 0H143.928Z" fill="#252525"/>
<path d="M38.5142 8.33335L40.1708 4.28502H40.5675L42.2183 8.33335H41.6233L40.2642 4.90918H40.4683L39.0975 8.33335H38.5142ZM39.3017 7.41752V6.93918H41.4308V7.41752H39.3017ZM43.6449 8.33335L42.0232 4.28502H42.6182L43.9541 7.70918H43.7382L45.0857 4.28502H45.6749L44.0416 8.33335H43.6449ZM45.4868 8.33335L47.1435 4.28502H47.5402L49.191 8.33335H48.596L47.2368 4.90918H47.441L46.0702 8.33335H45.4868ZM46.2743 7.41752V6.93918H48.4035V7.41752H46.2743ZM49.8004 8.33335V4.28502H50.3487V8.33335H49.8004ZM51.3043 8.33335V4.28502H51.8527V8.33335H51.3043ZM51.6777 8.33335V7.83168H53.8477V8.33335H51.6777ZM54.0773 8.33335L55.734 4.28502H56.1307L57.7815 8.33335H57.1865L55.8273 4.90918H56.0315L54.6607 8.33335H54.0773ZM54.8648 7.41752V6.93918H56.994V7.41752H54.8648ZM58.7584 8.33335V7.85502H59.9834C60.2167 7.85502 60.3996 7.78696 60.5317 7.65085C60.664 7.51085 60.7301 7.34363 60.7301 7.14918C60.7301 7.01696 60.7009 6.89835 60.6426 6.79335C60.5842 6.68446 60.4987 6.59891 60.3859 6.53668C60.2771 6.47446 60.1487 6.44335 60.0009 6.44335H58.7584V5.96502H59.9192C60.1137 5.96502 60.2673 5.91446 60.3801 5.81335C60.4967 5.70835 60.5551 5.55863 60.5551 5.36418C60.5551 5.16974 60.4948 5.02196 60.3742 4.92085C60.2537 4.81585 60.0942 4.76335 59.8959 4.76335H58.7584V4.28502H59.9076C60.1721 4.28502 60.3917 4.33363 60.5667 4.43085C60.7457 4.52418 60.8798 4.64863 60.9692 4.80418C61.0626 4.95974 61.1092 5.13085 61.1092 5.31752C61.1092 5.53529 61.049 5.72585 60.9284 5.88918C60.8117 6.05252 60.6387 6.18085 60.4092 6.27418L60.4559 6.09918C60.7165 6.19252 60.9187 6.33446 61.0626 6.52502C61.2104 6.71168 61.2842 6.93335 61.2842 7.19002C61.2842 7.40391 61.2317 7.59641 61.1267 7.76752C61.0217 7.93863 60.8701 8.07668 60.6717 8.18168C60.4773 8.28279 60.2382 8.33335 59.9542 8.33335H58.7584ZM58.3909 8.33335V4.28502H58.9392V8.33335H58.3909ZM62.0253 8.33335V4.28502H62.5737V8.33335H62.0253ZM62.3987 8.33335V7.83168H64.5687V8.33335H62.3987ZM65.244 8.33335V4.28502H65.7923V8.33335H65.244ZM65.6173 8.33335V7.83168H67.939V8.33335H65.6173ZM65.6173 6.50168V6.02335H67.7465V6.50168H65.6173ZM65.6173 4.78668V4.28502H67.9098V4.78668H65.6173ZM71.7414 8.39168C71.4537 8.39168 71.1853 8.33918 70.9364 8.23418C70.6875 8.12529 70.4697 7.97558 70.2831 7.78502C70.0964 7.59058 69.9506 7.36696 69.8456 7.11418C69.7445 6.86141 69.6939 6.59113 69.6939 6.30335C69.6939 6.01168 69.7445 5.74141 69.8456 5.49252C69.9506 5.23974 70.0945 5.01808 70.2772 4.82752C70.4639 4.63696 70.6797 4.48918 70.9247 4.38418C71.1737 4.27918 71.442 4.22668 71.7297 4.22668C72.0175 4.22668 72.2839 4.27918 72.5289 4.38418C72.7778 4.48918 72.9956 4.63696 73.1822 4.82752C73.3689 5.01808 73.5147 5.23974 73.6197 5.49252C73.7247 5.74529 73.7772 6.01752 73.7772 6.30918C73.7772 6.59696 73.7247 6.86724 73.6197 7.12002C73.5147 7.37279 73.3689 7.59446 73.1822 7.78502C72.9995 7.97558 72.7837 8.12529 72.5347 8.23418C72.2897 8.33918 72.0253 8.39168 71.7414 8.39168ZM71.7297 7.86668C72.0214 7.86668 72.2762 7.80058 72.4939 7.66835C72.7156 7.53224 72.8906 7.34752 73.0189 7.11418C73.1472 6.87696 73.2114 6.60668 73.2114 6.30335C73.2114 6.07779 73.1745 5.87168 73.1006 5.68502C73.0267 5.49446 72.9237 5.32918 72.7914 5.18918C72.6592 5.04918 72.5037 4.94224 72.3247 4.86835C72.1458 4.79058 71.9475 4.75168 71.7297 4.75168C71.442 4.75168 71.1872 4.81779 70.9656 4.95002C70.7478 5.08224 70.5747 5.26502 70.4464 5.49835C70.322 5.73168 70.2597 6.00002 70.2597 6.30335C70.2597 6.52891 70.2947 6.73891 70.3647 6.93335C70.4387 7.12391 70.5397 7.28918 70.6681 7.42918C70.8003 7.56529 70.9558 7.67224 71.1347 7.75002C71.3175 7.82779 71.5158 7.86668 71.7297 7.86668ZM74.5294 8.33335V4.28502H74.9144L75.0777 4.92085V8.33335H74.5294ZM77.3294 8.33335L74.8444 5.01418L74.9144 4.28502L77.4052 7.59835L77.3294 8.33335ZM77.3294 8.33335L77.1661 7.73252V4.28502H77.7144V8.33335H77.3294Z" fill="white"/>
<path fill-rule="evenodd" clip-rule="evenodd" d="M52.5899 21.7445H45.7738V23.767H50.6079C50.3689 26.6033 48.0093 27.8128 45.7819 27.8128C42.9321 27.8128 40.4454 25.5706 40.4454 22.4279C40.4454 19.3666 42.8159 17.0088 45.788 17.0088C48.0813 17.0088 49.4324 18.4706 49.4324 18.4706L50.8488 17.004C50.8488 17.004 49.031 14.9805 45.7157 14.9805C41.4942 14.9803 38.2283 18.5434 38.2283 22.3919C38.2283 26.163 41.3003 29.8401 45.8233 29.8401C49.8012 29.84 52.7131 27.1151 52.7131 23.0853C52.7131 22.2351 52.5899 21.7445 52.5899 21.7445Z" fill="white"/>
<path fill-rule="evenodd" clip-rule="evenodd" d="M58.3829 20.2797C55.5859 20.2797 53.5815 22.4661 53.5815 25.0165C53.5815 27.6042 55.5255 29.8316 58.4155 29.8316C61.0317 29.8316 63.175 27.8317 63.175 25.0721C63.175 21.9087 60.6819 20.2797 58.3829 20.2797ZM58.4102 22.1555C59.7857 22.1555 61.089 23.2675 61.089 25.0593C61.089 26.813 59.791 27.9567 58.4039 27.9567C56.8796 27.9567 55.677 26.736 55.677 25.0455C55.677 23.391 56.8648 22.1555 58.4102 22.1555Z" fill="white"/>
<path fill-rule="evenodd" clip-rule="evenodd" d="M68.9396 20.2797C66.1427 20.2797 64.1382 22.4661 64.1382 25.0165C64.1382 27.6042 66.0824 29.8316 68.9724 29.8316C71.5885 29.8316 73.7319 27.8317 73.7319 25.0721C73.7319 21.9087 71.2389 20.2797 68.9396 20.2797ZM68.9669 22.1555C70.3423 22.1555 71.6457 23.2675 71.6457 25.0593C71.6457 26.813 70.3478 27.9567 68.9604 27.9567C67.4364 27.9567 66.2339 26.736 66.2339 25.0455C66.2339 23.391 67.4214 22.1555 68.9669 22.1555Z" fill="white"/>
<path fill-rule="evenodd" clip-rule="evenodd" d="M79.2783 20.2847C76.7113 20.2847 74.6931 22.5332 74.6931 25.0568C74.6931 27.9314 77.0326 29.8379 79.234 29.8379C80.5954 29.8379 81.3191 29.2974 81.8534 28.6773V29.6191C81.8534 31.2668 80.853 32.2535 79.3428 32.2535C77.884 32.2535 77.1522 31.1688 76.898 30.5532L75.0624 31.3206C75.7137 32.6976 77.0245 34.1334 79.3579 34.1334C81.9105 34.1334 83.8558 32.5257 83.8558 29.1538V20.5718H81.8535V21.3808C81.2379 20.7173 80.396 20.2847 79.2783 20.2847ZM79.4642 22.1569C80.723 22.1569 82.0155 23.2317 82.0155 25.0668C82.0155 26.9324 80.7256 27.9606 79.4365 27.9606C78.0679 27.9606 76.7944 26.8493 76.7944 25.0848C76.7944 23.2512 78.117 22.1569 79.4642 22.1569Z" fill="white"/>
<path fill-rule="evenodd" clip-rule="evenodd" d="M93.1807 20.2732C90.7591 20.2732 88.7266 22.1999 88.7266 25.0428C88.7266 28.051 90.9924 29.8352 93.4132 29.8352C95.4341 29.8352 96.6741 28.7299 97.4149 27.7392L95.7641 26.6407C95.3349 27.3056 94.6191 27.9556 93.4241 27.9556C92.0816 27.9554 91.4641 27.2202 91.0816 26.508L97.4857 23.8507L97.1524 23.0719C96.5341 21.5469 95.0907 20.2735 93.1816 20.2735L93.1807 20.2732ZM93.2649 22.11C94.1374 22.11 94.7657 22.5739 95.0324 23.1301L90.7557 24.9176C90.5707 23.5339 91.8824 22.11 93.2649 22.11Z" fill="white"/>
<path fill-rule="evenodd" clip-rule="evenodd" d="M85.4634 29.5516H87.5667V15.4744H85.4634V29.5516Z" fill="white"/>
<path fill-rule="evenodd" clip-rule="evenodd" d="M113.666 29.5516H115.77V15.4744H113.666V29.5516Z" fill="white"/>
<path fill-rule="evenodd" clip-rule="evenodd" d="M102.51 29.5516H104.613V15.4744H102.51V29.5516Z" fill="white"/>
<path fill-rule="evenodd" clip-rule="evenodd" d="M104.613 17.5779V22.3398H107.598C108.903 22.3398 109.979 21.2644 109.979 19.9588C109.979 18.6534 108.903 17.5779 107.598 17.5779H104.613ZM102.51 15.4742H107.598C110.065 15.4742 112.083 17.4924 112.083 19.9588C112.083 22.4254 110.065 24.4432 107.598 24.4432H102.51V15.4742Z" fill="white"/>
<path fill-rule="evenodd" clip-rule="evenodd" d="M131.299 34.1335L137.39 20.2736H135.092L129.002 34.1335H131.299Z" fill="white"/>
<path fill-rule="evenodd" clip-rule="evenodd" d="M131.979 30.961L127.282 20.2736H129.58L132.819 27.6446H131.979V30.961Z" fill="white"/>
<path fill-rule="evenodd" clip-rule="evenodd" d="M124.377 25.4824C124.107 26.6531 123.2 27.495 122.049 27.8086C119.617 28.4717 119.012 24.5196 122.627 25.0631C123.247 25.138 123.788 25.2918 124.377 25.4824ZM124.378 29.5516H126.482V24.4887C126.811 19.267 120.191 18.0387 117.686 21.8031L119.378 22.939C120.603 20.7975 124.098 21.2902 124.328 23.5851C123.277 23.307 122.142 23.1051 121.106 23.2101C119.487 23.3738 118.102 24.4017 117.882 26.085C117.763 26.9943 117.966 28.1159 118.601 28.7992C119.591 29.8636 121.216 30.0072 122.55 29.6436C123.302 29.4386 123.893 28.9922 124.378 28.4155V29.5516Z" fill="white"/>
<g clip-path="url(#clip1_80_1139)">
<path d="M24.254 15.7805L13.1919 9.24996C13.0529 9.16659 12.878 9.17122 12.7435 9.25459C12.6045 9.33796 12.5193 9.48617 12.5193 9.65291C12.5193 9.65291 12.5238 10.255 12.5283 11.2462L20.5861 19.5692L24.254 15.7805Z" fill="url(#paint0_linear_80_1139)"/>
<path d="M12.5281 11.2462C12.5415 14.8218 12.5819 23.5015 12.5998 27.8227L20.5904 19.5692L12.5281 11.2462Z" fill="url(#paint1_linear_80_1139)"/>
<path d="M30.5854 19.5182L24.254 15.7805L20.5815 19.5692L24.7248 23.8488L30.5899 20.3195C30.7289 20.2361 30.8141 20.0833 30.8141 19.9212C30.8141 19.7544 30.7245 19.6016 30.5854 19.5182Z" fill="url(#paint2_linear_80_1139)"/>
<path d="M12.5955 27.8227C12.6044 29.3651 12.6089 30.3516 12.6089 30.3516C12.6089 30.5183 12.6941 30.6712 12.8331 30.7499C12.9721 30.8333 13.1425 30.8333 13.2815 30.7499L24.7293 23.8535L20.586 19.5739L12.5955 27.8227Z" fill="url(#paint3_linear_80_1139)"/>
</g>
</g>
<defs>
<linearGradient id="paint0_linear_80_1139" x1="12.5193" y1="14.3815" x2="24.2561" y2="14.3815" gradientUnits="userSpaceOnUse">
<stop stop-color="#63BE6B"/>
<stop offset="0.506" stop-color="#5BBC6A"/>
<stop offset="1" stop-color="#4AB96A"/>
</linearGradient>
<linearGradient id="paint1_linear_80_1139" x1="12.5259" y1="19.5365" x2="20.5857" y2="19.5365" gradientUnits="userSpaceOnUse">
<stop stop-color="#3EC6F2"/>
<stop offset="1" stop-color="#45AFE3"/>
</linearGradient>
<linearGradient id="paint2_linear_80_1139" x1="20.5858" y1="19.8176" x2="30.8131" y2="19.8176" gradientUnits="userSpaceOnUse">
<stop stop-color="#FAA51A"/>
<stop offset="0.387" stop-color="#FAB716"/>
<stop offset="0.741" stop-color="#FAC412"/>
<stop offset="1" stop-color="#FAC80F"/>
</linearGradient>
<linearGradient id="paint3_linear_80_1139" x1="12.5974" y1="25.193" x2="24.7291" y2="25.193" gradientUnits="userSpaceOnUse">
<stop stop-color="#EC3B50"/>
<stop offset="1" stop-color="#E7515B"/>
</linearGradient>
<clipPath id="clip0_80_1139">
<rect width="150" height="40" fill="white"/>
</clipPath>
<clipPath id="clip1_80_1139">
<rect width="18.3333" height="21.6667" fill="white" transform="translate(12.5 9.16663)"/>
</clipPath>
</defs>
</svg>
