<svg width="60" height="60" viewBox="0 0 60 60" fill="none" xmlns="http://www.w3.org/2000/svg">
<path d="M23.7005 51.725C22.4505 51.725 21.5755 51.3 21.0505 50.9C20.0505 50.175 18.5005 48.3 19.4755 44.1L20.9004 37.95C21.0254 37.425 20.7504 36.475 20.3754 36.075L15.4005 31.1C12.7755 28.475 13.0005 26.2 13.3505 25.075C13.7005 23.95 14.8504 21.975 18.5004 21.35L24.8755 20.3C25.3505 20.225 26.1255 19.65 26.3255 19.225L29.8505 12.175C31.5505 8.77502 33.8005 8.27502 35.0005 8.27502C36.2005 8.27502 38.4505 8.77502 40.1505 12.175L43.6755 19.225C43.9005 19.65 44.6504 20.225 45.1254 20.3L51.5005 21.35C55.1505 21.95 56.3005 23.95 56.6505 25.075C57.0005 26.2 57.2255 28.475 54.6005 31.1L49.6255 36.075C49.2505 36.45 48.9755 37.425 49.1005 37.95L50.5254 44.1C51.5004 48.325 49.9504 50.175 48.9504 50.9C47.9504 51.625 45.7255 52.55 41.9755 50.325L36.0004 46.775C35.5004 46.475 34.4504 46.475 33.9504 46.775L27.9755 50.325C26.2505 51.375 24.8005 51.725 23.7005 51.725ZM35.0005 12.025C34.6005 12.025 33.8755 12.5 33.2005 13.85L29.6755 20.9C28.9255 22.425 27.1505 23.725 25.4755 24L19.1005 25.05C17.6755 25.3 17.0255 25.825 16.9005 26.225C16.7755 26.625 17.0004 27.425 18.0254 28.45L23.0005 33.425C24.2755 34.7 24.9505 37.025 24.5505 38.775L23.1255 44.925C22.7005 46.7 22.9754 47.65 23.2504 47.875C23.5254 48.075 24.5254 48.05 26.0754 47.1L32.0754 43.55C33.7504 42.55 36.2755 42.55 37.9255 43.55L43.9005 47.1C45.4755 48.025 46.4755 48.075 46.7505 47.875C47.0255 47.675 47.3005 46.725 46.8755 44.925L45.4504 38.775C45.0504 37 45.7004 34.7 47.0004 33.425L51.9755 28.45C53.0005 27.425 53.2254 26.6 53.1004 26.225C52.9754 25.85 52.3254 25.3 50.9004 25.05L44.5255 24C42.8505 23.725 41.0755 22.425 40.3255 20.9L36.8005 13.85C36.1255 12.5 35.4005 12.025 35.0005 12.025Z" fill="#51C37F"/>
<path d="M20 14.375H5C3.975 14.375 3.125 13.525 3.125 12.5C3.125 11.475 3.975 10.625 5 10.625H20C21.025 10.625 21.875 11.475 21.875 12.5C21.875 13.525 21.025 14.375 20 14.375Z" fill="#51C37F"/>
<path d="M12.5 49.375H5C3.975 49.375 3.125 48.525 3.125 47.5C3.125 46.475 3.975 45.625 5 45.625H12.5C13.525 45.625 14.375 46.475 14.375 47.5C14.375 48.525 13.525 49.375 12.5 49.375Z" fill="#51C37F"/>
<path d="M7.5 31.875H5C3.975 31.875 3.125 31.025 3.125 30C3.125 28.975 3.975 28.125 5 28.125H7.5C8.525 28.125 9.375 28.975 9.375 30C9.375 31.025 8.525 31.875 7.5 31.875Z" fill="#51C37F"/>
</svg>
