<svg width="150" height="40" viewBox="0 0 150 40" fill="none" xmlns="http://www.w3.org/2000/svg">
<g clip-path="url(#clip0_80_1126)">
<path fill-rule="evenodd" clip-rule="evenodd" d="M145.681 40H4.32508C1.93778 40 0 38.2056 0 35.9903V4.01487C0 1.80067 1.93778 0 4.32508 0H145.679C148.069 0 149.999 1.80067 149.999 4.01487L150 35.9903C150 38.2056 148.069 40 145.681 40Z" fill="#252525"/>
<path d="M47.6809 8.33335L49.3376 4.28502H49.7342L51.3851 8.33335H50.7901L49.4309 4.90918H49.6351L48.2642 8.33335H47.6809ZM48.4684 7.41752V6.93918H50.5976V7.41752H48.4684ZM52.8117 8.33335L51.19 4.28502H51.785L53.1208 7.70918H52.905L54.2525 4.28502H54.8417L53.2083 8.33335H52.8117ZM54.6536 8.33335L56.3102 4.28502H56.7069L58.3577 8.33335H57.7627L56.4036 4.90918H56.6077L55.2369 8.33335H54.6536ZM55.4411 7.41752V6.93918H57.5702V7.41752H55.4411ZM58.9672 8.33335V4.28502H59.5155V8.33335H58.9672ZM60.4711 8.33335V4.28502H61.0194V8.33335H60.4711ZM60.8444 8.33335V7.83168H63.0144V8.33335H60.8444ZM63.2441 8.33335L64.9007 4.28502H65.2974L66.9482 8.33335H66.3532L64.9941 4.90918H65.1982L63.8274 8.33335H63.2441ZM64.0316 7.41752V6.93918H66.1607V7.41752H64.0316ZM67.9252 8.33335V7.85502H69.1502C69.3835 7.85502 69.5663 7.78696 69.6985 7.65085C69.8307 7.51085 69.8968 7.34363 69.8968 7.14918C69.8968 7.01696 69.8677 6.89835 69.8093 6.79335C69.751 6.68446 69.6655 6.59891 69.5527 6.53668C69.4438 6.47446 69.3155 6.44335 69.1677 6.44335H67.9252V5.96502H69.086C69.2805 5.96502 69.4341 5.91446 69.5468 5.81335C69.6635 5.70835 69.7218 5.55863 69.7218 5.36418C69.7218 5.16974 69.6616 5.02196 69.541 4.92085C69.4205 4.81585 69.261 4.76335 69.0627 4.76335H67.9252V4.28502H69.0743C69.3388 4.28502 69.5585 4.33363 69.7335 4.43085C69.9124 4.52418 70.0466 4.64863 70.136 4.80418C70.2293 4.95974 70.276 5.13085 70.276 5.31752C70.276 5.53529 70.2157 5.72585 70.0952 5.88918C69.9785 6.05252 69.8055 6.18085 69.576 6.27418L69.6227 6.09918C69.8832 6.19252 70.0855 6.33446 70.2293 6.52502C70.3772 6.71168 70.451 6.93335 70.451 7.19002C70.451 7.40391 70.3985 7.59641 70.2935 7.76752C70.1885 7.93863 70.0368 8.07668 69.8385 8.18168C69.6441 8.28279 69.4049 8.33335 69.121 8.33335H67.9252ZM67.5577 8.33335V4.28502H68.106V8.33335H67.5577ZM71.1921 8.33335V4.28502H71.7404V8.33335H71.1921ZM71.5654 8.33335V7.83168H73.7354V8.33335H71.5654ZM74.4107 8.33335V4.28502H74.9591V8.33335H74.4107ZM74.7841 8.33335V7.83168H77.1057V8.33335H74.7841ZM74.7841 6.50168V6.02335H76.9132V6.50168H74.7841ZM74.7841 4.78668V4.28502H77.0766V4.78668H74.7841ZM80.9082 8.39168C80.6204 8.39168 80.3521 8.33918 80.1032 8.23418C79.8542 8.12529 79.6365 7.97558 79.4498 7.78502C79.2632 7.59058 79.1173 7.36696 79.0123 7.11418C78.9112 6.86141 78.8607 6.59113 78.8607 6.30335C78.8607 6.01168 78.9112 5.74141 79.0123 5.49252C79.1173 5.23974 79.2612 5.01808 79.444 4.82752C79.6307 4.63696 79.8465 4.48918 80.0915 4.38418C80.3404 4.27918 80.6087 4.22668 80.8965 4.22668C81.1842 4.22668 81.4507 4.27918 81.6957 4.38418C81.9446 4.48918 82.1623 4.63696 82.349 4.82752C82.5357 5.01808 82.6815 5.23974 82.7865 5.49252C82.8915 5.74529 82.944 6.01752 82.944 6.30918C82.944 6.59696 82.8915 6.86724 82.7865 7.12002C82.6815 7.37279 82.5357 7.59446 82.349 7.78502C82.1662 7.97558 81.9504 8.12529 81.7015 8.23418C81.4565 8.33918 81.1921 8.39168 80.9082 8.39168ZM80.8965 7.86668C81.1882 7.86668 81.4429 7.80058 81.6607 7.66835C81.8823 7.53224 82.0573 7.34752 82.1857 7.11418C82.314 6.87696 82.3782 6.60668 82.3782 6.30335C82.3782 6.07779 82.3412 5.87168 82.2673 5.68502C82.1934 5.49446 82.0904 5.32918 81.9582 5.18918C81.8259 5.04918 81.6704 4.94224 81.4915 4.86835C81.3126 4.79058 81.1142 4.75168 80.8965 4.75168C80.6087 4.75168 80.354 4.81779 80.1323 4.95002C79.9146 5.08224 79.7415 5.26502 79.6132 5.49835C79.4887 5.73168 79.4265 6.00002 79.4265 6.30335C79.4265 6.52891 79.4615 6.73891 79.5315 6.93335C79.6054 7.12391 79.7065 7.28918 79.8348 7.42918C79.9671 7.56529 80.1226 7.67224 80.3015 7.75002C80.4842 7.82779 80.6826 7.86668 80.8965 7.86668ZM83.6959 8.33335V4.28502H84.0809L84.2442 4.92085V8.33335H83.6959ZM86.4959 8.33335L84.0109 5.01418L84.0809 4.28502L86.5717 7.59835L86.4959 8.33335ZM86.4959 8.33335L86.3326 7.73252V4.28502H86.8809V8.33335H86.4959Z" fill="white"/>
<path fill-rule="evenodd" clip-rule="evenodd" d="M60.1377 30.6314H57.5535L56.138 26.2225H51.2178L49.8694 30.6314H47.3535L52.2283 15.6212H55.2391L60.1377 30.6314ZM55.7122 24.3726L54.432 20.4532C54.2966 20.0528 54.0428 19.1099 53.6685 17.6255H53.623C53.4739 18.2639 53.2338 19.2069 52.9038 20.4532L51.6465 24.3726H55.7122Z" fill="white"/>
<path fill-rule="evenodd" clip-rule="evenodd" d="M72.6735 25.0868C72.6735 26.9274 72.1716 28.3824 71.168 29.4506C70.2691 30.4014 69.1528 30.8763 67.8204 30.8763C66.382 30.8763 65.3489 30.3642 64.7196 29.3401H64.6741V35.0416H62.2481V23.3712C62.2481 22.2139 62.2174 21.0263 62.1582 19.8081H64.2918L64.4272 21.5237H64.4727C65.2817 20.2311 66.5095 19.5859 68.1572 19.5859C69.4453 19.5859 70.5205 20.0901 71.3808 21.0996C72.2433 22.1102 72.6735 23.4389 72.6735 25.0868ZM70.2029 25.1747C70.2029 24.1213 69.9639 23.2528 69.4837 22.5693C68.9591 21.8564 68.2548 21.5 67.3718 21.5C66.7733 21.5 66.2294 21.6985 65.7435 22.0899C65.2565 22.4847 64.9379 23.0001 64.7888 23.6385C64.7137 23.9363 64.6761 24.1799 64.6761 24.3717V26.1763C64.6761 26.9636 64.9196 27.6279 65.4067 28.1704C65.8937 28.7129 66.5264 28.9837 67.3046 28.9837C68.2184 28.9837 68.9295 28.634 69.4382 27.9369C69.948 27.2388 70.2029 26.3184 70.2029 25.1747Z" fill="white"/>
<path fill-rule="evenodd" clip-rule="evenodd" d="M85.2326 25.0867C85.2326 26.9274 84.7309 28.3824 83.7259 29.4505C82.8283 30.4014 81.7119 30.8762 80.3795 30.8762C78.9412 30.8762 77.908 30.3642 77.2799 29.34H77.2343V35.0416H74.8084V23.3711C74.8084 22.2139 74.7777 21.0263 74.7185 19.8081H76.852L76.9874 21.5236H77.033C77.8408 20.231 79.0687 19.5859 80.7174 19.5859C82.0044 19.5859 83.0797 20.0901 83.9426 21.0995C84.8009 22.1102 85.2326 23.4389 85.2326 25.0867ZM82.7607 25.1747C82.7607 24.1212 82.5206 23.2527 82.0404 22.5692C81.5158 21.8564 80.8138 21.4999 79.9296 21.4999C79.3299 21.4999 78.7872 21.6984 78.3002 22.0899C77.8132 22.4846 77.4957 23 77.3466 23.6384C77.2727 23.9362 77.234 24.1799 77.234 24.3716V26.1763C77.234 26.9635 77.4775 27.6279 77.9623 28.1704C78.4493 28.7118 79.0819 28.9836 79.8625 28.9836C80.7762 28.9836 81.4874 28.6339 81.996 27.9369C82.5058 27.2387 82.7607 26.3184 82.7607 25.1747Z" fill="white"/>
<path fill-rule="evenodd" clip-rule="evenodd" d="M99.2734 26.4221C99.2734 27.699 98.8259 28.7377 97.9284 29.5397C96.9418 30.416 95.5684 30.8537 93.8034 30.8537C92.1743 30.8537 90.8676 30.5424 89.8784 29.9186L90.4409 27.9144C91.5059 28.5528 92.6743 28.8731 93.9476 28.8731C94.8618 28.8731 95.5726 28.6678 96.0834 28.2595C96.5926 27.8512 96.8459 27.303 96.8459 26.6195C96.8459 26.0105 96.6368 25.4973 96.2168 25.081C95.7993 24.6649 95.1018 24.278 94.1276 23.9205C91.4768 22.9403 90.1518 21.5045 90.1518 19.6164C90.1518 18.3825 90.6159 17.3707 91.5459 16.5835C92.4718 15.795 93.7076 15.4014 95.2534 15.4014C96.6309 15.4014 97.7759 15.6394 98.6893 16.1142L98.0826 18.0745C97.2293 17.6144 96.2643 17.3843 95.1851 17.3843C94.3318 17.3843 93.6643 17.5929 93.1868 18.008C92.7826 18.379 92.5801 18.8314 92.5801 19.3671C92.5801 19.9604 92.8109 20.451 93.2751 20.8368C93.6793 21.1932 94.4134 21.579 95.4784 21.9951C96.7809 22.5151 97.7384 23.123 98.3534 23.82C98.9668 24.5149 99.2734 25.3844 99.2734 26.4221Z" fill="white"/>
<path fill-rule="evenodd" clip-rule="evenodd" d="M107.294 21.6127H104.62V26.8677C104.62 28.2042 105.092 28.872 106.036 28.872C106.469 28.872 106.829 28.8347 107.113 28.7603L107.181 30.5864C106.703 30.7635 106.073 30.8526 105.294 30.8526C104.336 30.8526 103.588 30.5627 103.047 29.9841C102.508 29.4043 102.238 28.4321 102.238 27.0662V21.6105H100.644V19.8058H102.238V17.8242L104.62 17.1113V19.8058H107.294V21.6127Z" fill="white"/>
<path fill-rule="evenodd" clip-rule="evenodd" d="M119.358 25.1307C119.358 26.7944 118.878 28.1603 117.921 29.2284C116.916 30.3281 115.581 30.8763 113.92 30.8763C112.317 30.8763 111.041 30.3495 110.091 29.296C109.139 28.2426 108.663 26.9128 108.663 25.31C108.663 23.6329 109.153 22.259 110.135 21.191C111.115 20.1217 112.436 19.587 114.099 19.587C115.701 19.587 116.991 20.1138 117.963 21.1684C118.894 22.1914 119.358 23.5122 119.358 25.1307ZM116.842 25.2085C116.842 24.2104 116.627 23.3543 116.191 22.6403C115.683 21.7764 114.956 21.3455 114.014 21.3455C113.038 21.3455 112.297 21.7775 111.789 22.6403C111.353 23.3554 111.138 24.225 111.138 25.2537C111.138 26.2519 111.353 27.108 111.789 27.8208C112.314 28.6848 113.046 29.1156 113.992 29.1156C114.918 29.1156 115.646 28.6757 116.17 27.7982C116.617 27.0707 116.842 26.2056 116.842 25.2085Z" fill="white"/>
<path fill-rule="evenodd" clip-rule="evenodd" d="M127.247 21.9229C127.007 21.8789 126.75 21.8564 126.482 21.8564C125.628 21.8564 124.968 22.1756 124.504 22.8151C124.1 23.3791 123.898 24.0919 123.898 24.9525V30.6315H121.473L121.496 23.2167C121.496 21.9692 121.465 20.8334 121.405 19.8093H123.518L123.607 21.8801H123.673C123.93 21.1684 124.333 20.5954 124.887 20.1657C125.427 19.7789 126.011 19.5859 126.64 19.5859C126.864 19.5859 127.067 19.6018 127.247 19.6299V21.9229Z" fill="white"/>
<path fill-rule="evenodd" clip-rule="evenodd" d="M138.094 24.7077C138.094 25.1386 138.066 25.5017 138.006 25.7984H130.727C130.756 26.8676 131.107 27.6854 131.783 28.2493C132.397 28.7535 133.19 29.0061 134.164 29.0061C135.242 29.0061 136.225 28.8358 137.109 28.4941L137.489 30.1634C136.456 30.6101 135.236 30.8322 133.828 30.8322C132.135 30.8322 130.806 30.3382 129.839 29.3513C128.874 28.3644 128.39 27.0391 128.39 25.3766C128.39 23.7445 128.84 22.3854 129.74 21.3015C130.682 20.1442 131.955 19.5656 133.557 19.5656C135.131 19.5656 136.322 20.1442 137.132 21.3015C137.772 22.2206 138.094 23.3576 138.094 24.7077ZM135.782 24.0839C135.797 23.3711 135.639 22.7552 135.311 22.2353C134.891 21.5665 134.245 21.2326 133.377 21.2326C132.584 21.2326 131.939 21.5586 131.446 22.2127C131.042 22.7327 130.802 23.3564 130.728 24.0828H135.782V24.0839Z" fill="white"/>
<path fill-rule="evenodd" clip-rule="evenodd" d="M33.3788 20.4122C33.3458 16.777 36.3817 15.0084 36.5205 14.926C34.8012 12.4413 32.1363 12.1018 31.1998 12.0747C28.9616 11.8412 26.7905 13.4022 25.6503 13.4022C24.4874 13.4022 22.7317 12.0973 20.8393 12.1356C18.4043 12.1728 16.1263 13.5703 14.8768 15.7404C12.2983 20.1651 14.2214 26.6675 16.6918 30.2441C17.9275 31.9957 19.3715 33.9515 21.2615 33.8827C23.1106 33.8071 23.8013 32.7142 26.0327 32.7142C28.2436 32.7142 28.8922 33.8827 30.8198 33.8387C32.8042 33.8071 34.0536 32.0792 35.2461 30.3118C36.6742 28.3041 37.2477 26.3269 37.2704 26.2254C37.2238 26.2096 33.4163 24.7693 33.3788 20.4122Z" fill="white"/>
<path fill-rule="evenodd" clip-rule="evenodd" d="M29.7374 9.72183C30.732 8.48908 31.4124 6.81187 31.2235 5.10986C29.7841 5.17302 27.984 6.09678 26.9473 7.3025C26.0303 8.365 25.2109 10.1065 25.4226 11.7442C27.0395 11.8637 28.6997 10.9355 29.7374 9.72183Z" fill="white"/>
</g>
<defs>
<clipPath id="clip0_80_1126">
<rect width="150" height="40" fill="white"/>
</clipPath>
</defs>
</svg>
